<svg width="288" height="87" viewBox="0 0 288 87" fill="none" xmlns="http://www.w3.org/2000/svg">
<path fill-rule="evenodd" clip-rule="evenodd" d="M37.6445 0.676291C38.3508 0.234339 39.167 0 40 0C40.833 0 41.6492 0.234339 42.3556 0.676291L73.04 19.8747L40 39.3311L6.96002 19.8747L37.6445 0.676291ZM0.0355717 26.1214C0.011369 26.3117 -0.000507221 26.5034 1.65965e-05 26.6953V62.289C1.48187e-05 63.0437 0.191739 63.7859 0.557157 64.4459C0.922576 65.1059 1.44968 65.662 2.08891 66.062L35.5556 87V47.0371L0.0355717 26.1214ZM44.4445 87L77.9111 66.062C78.5503 65.662 79.0774 65.1059 79.4429 64.4459C79.8083 63.7859 80 63.0437 80 62.289V26.6953C80 26.5025 79.9882 26.3112 79.9644 26.1214L44.4445 47.0327V87Z" fill="#F9C416"/>
<path d="M102.816 55.5V31.5H112.73C114.527 31.5 116.078 31.8516 117.383 32.5547C118.695 33.25 119.707 34.2227 120.418 35.4727C121.129 36.7148 121.484 38.1602 121.484 39.8086C121.484 41.4648 121.121 42.9141 120.395 44.1562C119.676 45.3906 118.648 46.3477 117.313 47.0273C115.977 47.707 114.391 48.0469 112.555 48.0469H106.438V43.4766H111.477C112.352 43.4766 113.082 43.3242 113.668 43.0195C114.262 42.7148 114.711 42.2891 115.016 41.7422C115.32 41.1875 115.473 40.543 115.473 39.8086C115.473 39.0664 115.32 38.4258 115.016 37.8867C114.711 37.3398 114.262 36.918 113.668 36.6211C113.074 36.3242 112.344 36.1758 111.477 36.1758H108.617V55.5H102.816ZM128.773 55.8047C127.625 55.8047 126.605 55.6133 125.715 55.2305C124.832 54.8398 124.133 54.2539 123.617 53.4727C123.109 52.6836 122.855 51.6953 122.855 50.5078C122.855 49.5078 123.031 48.6641 123.383 47.9766C123.734 47.2891 124.219 46.7305 124.836 46.3008C125.453 45.8711 126.164 45.5469 126.969 45.3281C127.773 45.1016 128.633 44.9492 129.547 44.8711C130.57 44.7773 131.395 44.6797 132.02 44.5781C132.645 44.4688 133.098 44.3164 133.379 44.1211C133.668 43.918 133.813 43.6328 133.813 43.2656V43.207C133.813 42.6055 133.605 42.1406 133.191 41.8125C132.777 41.4844 132.219 41.3203 131.516 41.3203C130.758 41.3203 130.148 41.4844 129.688 41.8125C129.227 42.1406 128.934 42.5937 128.809 43.1719L123.523 42.9844C123.68 41.8906 124.082 40.9141 124.73 40.0547C125.387 39.1875 126.285 38.5078 127.426 38.0156C128.574 37.5156 129.953 37.2656 131.563 37.2656C132.711 37.2656 133.77 37.4023 134.738 37.6758C135.707 37.9414 136.551 38.332 137.27 38.8477C137.988 39.3555 138.543 39.9805 138.934 40.7227C139.332 41.4648 139.531 42.3125 139.531 43.2656V55.5H134.141V52.9922H134C133.68 53.6016 133.27 54.1172 132.77 54.5391C132.277 54.9609 131.695 55.2773 131.023 55.4883C130.359 55.6992 129.609 55.8047 128.773 55.8047ZM130.543 52.0547C131.16 52.0547 131.715 51.9297 132.207 51.6797C132.707 51.4297 133.105 51.0859 133.402 50.6484C133.699 50.2031 133.848 49.6875 133.848 49.1016V47.3906C133.684 47.4766 133.484 47.5547 133.25 47.625C133.023 47.6953 132.773 47.7617 132.5 47.8242C132.227 47.8867 131.945 47.9414 131.656 47.9883C131.367 48.0352 131.09 48.0781 130.824 48.1172C130.285 48.2031 129.824 48.3359 129.441 48.5156C129.066 48.6953 128.777 48.9297 128.574 49.2187C128.379 49.5 128.281 49.8359 128.281 50.2266C128.281 50.8203 128.492 51.2734 128.914 51.5859C129.344 51.8984 129.887 52.0547 130.543 52.0547ZM151.438 55.8398C149.539 55.8398 147.91 55.4492 146.551 54.668C145.199 53.8867 144.16 52.8008 143.434 51.4102C142.707 50.0117 142.344 48.3945 142.344 46.5586C142.344 44.7148 142.707 43.0977 143.434 41.707C144.168 40.3086 145.211 39.2187 146.563 38.4375C147.922 37.6562 149.543 37.2656 151.426 37.2656C153.09 37.2656 154.539 37.5664 155.773 38.168C157.016 38.7695 157.984 39.6211 158.68 40.7227C159.383 41.8164 159.754 43.1016 159.793 44.5781H154.438C154.328 43.6562 154.016 42.9336 153.5 42.4102C152.992 41.8867 152.328 41.625 151.508 41.625C150.844 41.625 150.262 41.8125 149.762 42.1875C149.262 42.5547 148.871 43.1016 148.59 43.8281C148.316 44.5469 148.18 45.4375 148.18 46.5C148.18 47.5625 148.316 48.4609 148.59 49.1953C148.871 49.9219 149.262 50.4727 149.762 50.8477C150.262 51.2148 150.844 51.3984 151.508 51.3984C152.039 51.3984 152.508 51.2852 152.914 51.0586C153.328 50.832 153.668 50.5 153.934 50.0625C154.199 49.6172 154.367 49.0781 154.438 48.4453H159.793C159.738 49.9297 159.367 51.2266 158.68 52.3359C158 53.4453 157.043 54.3086 155.809 54.9258C154.582 55.5352 153.125 55.8398 151.438 55.8398ZM167.894 50.7773L167.917 43.9453H168.714L173.776 37.5H180.269L172.745 46.7344H171.233L167.894 50.7773ZM162.726 55.5V31.5H168.456V55.5H162.726ZM173.905 55.5L169.194 48.0234L172.968 43.957L180.526 55.5H173.905ZM185.683 55.5L180.995 37.5H186.749L189.175 49.0312H189.327L191.929 37.5H197.542L200.214 48.9492H200.366L202.722 37.5H208.476L203.776 55.5H197.647L194.835 45.0117H194.636L191.823 55.5H185.683ZM210.775 55.5V37.5H216.342V40.7812H216.529C216.857 39.5937 217.393 38.7109 218.135 38.1328C218.877 37.5469 219.74 37.2539 220.725 37.2539C220.99 37.2539 221.264 37.2734 221.545 37.3125C221.826 37.3437 222.088 37.3945 222.33 37.4648V42.4453C222.057 42.3516 221.697 42.2773 221.252 42.2227C220.814 42.168 220.424 42.1406 220.08 42.1406C219.4 42.1406 218.787 42.293 218.24 42.5977C217.701 42.8945 217.275 43.3125 216.963 43.8516C216.658 44.3828 216.506 45.0078 216.506 45.7266V55.5H210.775ZM224.665 55.5V37.5H230.396V55.5H224.665ZM227.536 35.4023C226.731 35.4023 226.04 35.1367 225.462 34.6055C224.884 34.0664 224.595 33.418 224.595 32.6602C224.595 31.9102 224.884 31.2695 225.462 30.7383C226.04 30.1992 226.731 29.9297 227.536 29.9297C228.349 29.9297 229.04 30.1992 229.61 30.7383C230.188 31.2695 230.478 31.9102 230.478 32.6602C230.478 33.418 230.188 34.0664 229.61 34.6055C229.04 35.1367 228.349 35.4023 227.536 35.4023ZM242.434 62.625C240.723 62.625 239.258 62.3867 238.039 61.9102C236.82 61.4336 235.863 60.7813 235.168 59.9531C234.473 59.125 234.055 58.1875 233.914 57.1406L239.34 56.8359C239.441 57.2031 239.629 57.5234 239.902 57.7969C240.184 58.0703 240.547 58.2813 240.992 58.4297C241.445 58.5781 241.977 58.6523 242.586 58.6523C243.547 58.6523 244.34 58.418 244.965 57.9492C245.598 57.4883 245.914 56.6797 245.914 55.5234V52.3594H245.715C245.488 52.9141 245.145 53.4102 244.684 53.8477C244.223 54.2852 243.648 54.6289 242.961 54.8789C242.281 55.1289 241.5 55.2539 240.617 55.2539C239.305 55.2539 238.102 54.9492 237.008 54.3398C235.922 53.7227 235.051 52.7695 234.395 51.4805C233.746 50.1836 233.422 48.5156 233.422 46.4766C233.422 44.375 233.758 42.6445 234.43 41.2852C235.102 39.918 235.98 38.9062 237.066 38.25C238.16 37.5937 239.336 37.2656 240.594 37.2656C241.539 37.2656 242.348 37.4297 243.02 37.7578C243.699 38.0781 244.258 38.4922 244.695 39C245.133 39.5078 245.465 40.0352 245.691 40.582H245.855V37.5H251.562V55.5703C251.562 57.0938 251.18 58.3789 250.414 59.4258C249.648 60.4727 248.578 61.2656 247.203 61.8047C245.828 62.3516 244.238 62.625 242.434 62.625ZM242.609 51.082C243.305 51.082 243.898 50.8984 244.391 50.5312C244.883 50.1641 245.262 49.6367 245.527 48.9492C245.793 48.2617 245.926 47.4375 245.926 46.4766C245.926 45.5 245.793 44.6602 245.527 43.957C245.27 43.2461 244.891 42.6992 244.391 42.3164C243.898 41.9336 243.305 41.7422 242.609 41.7422C241.898 41.7422 241.297 41.9375 240.805 42.3281C240.313 42.7187 239.938 43.2695 239.68 43.9805C239.43 44.6836 239.305 45.5156 239.305 46.4766C239.305 47.4375 239.434 48.2617 239.691 48.9492C239.949 49.6367 240.32 50.1641 240.805 50.5312C241.297 50.8984 241.898 51.082 242.609 51.082ZM260.946 45.2344V55.5H255.216V31.5H260.759V40.8047H260.958C261.364 39.6953 262.028 38.8281 262.95 38.2031C263.88 37.5781 265.017 37.2656 266.36 37.2656C267.626 37.2656 268.728 37.5469 269.665 38.1094C270.603 38.6641 271.329 39.4492 271.845 40.4648C272.368 41.4805 272.626 42.668 272.618 44.0273V55.5H266.888V45.1523C266.896 44.1523 266.646 43.3711 266.138 42.8086C265.63 42.2461 264.915 41.9648 263.993 41.9648C263.392 41.9648 262.86 42.0977 262.399 42.3633C261.946 42.6211 261.591 42.9922 261.333 43.4766C261.083 43.9609 260.954 44.5469 260.946 45.2344ZM286.355 37.5V41.7187H275V37.5H286.355ZM277.379 33.1875H283.109V49.8398C283.109 50.1914 283.164 50.4766 283.273 50.6953C283.391 50.9062 283.559 51.0586 283.777 51.1523C283.996 51.2383 284.258 51.2813 284.562 51.2813C284.781 51.2813 285.012 51.2617 285.254 51.2227C285.504 51.1758 285.691 51.1367 285.816 51.1055L286.684 55.2422C286.41 55.3203 286.023 55.418 285.523 55.5352C285.031 55.6523 284.441 55.7266 283.754 55.7578C282.41 55.8203 281.258 55.6641 280.297 55.2891C279.344 54.9062 278.613 54.3125 278.105 53.5078C277.605 52.7031 277.363 51.6914 277.379 50.4727V33.1875Z" fill="#1F2A37"/>
</svg>
